<?xml version="1.0" standalone="no"?>
<svg xmlns:xlink="http://www.w3.org/1999/xlink" id="wave" style="transform:rotate(0deg); transition: 0.3s" viewBox="0 0 1440 200" version="1.1" xmlns="http://www.w3.org/2000/svg"><defs><linearGradient id="sw-gradient-0" x1="0" x2="0" y1="1" y2="0"><stop stop-color="rgba(221.204, 221.204, 221.204, 1)" offset="0%"/><stop stop-color="rgba(255, 255, 255, 1)" offset="100%"/></linearGradient></defs><path style="transform:translate(0, 0px); opacity:1" fill="url(#sw-gradient-0)" d="M0,0L288,80L576,80L864,0L1152,60L1440,80L1728,40L2016,160L2304,20L2592,40L2880,40L3168,60L3456,180L3744,100L4032,180L4320,60L4608,0L4896,40L5184,20L5472,140L5760,80L6048,0L6336,120L6624,60L6912,0L6912,200L6624,200L6336,200L6048,200L5760,200L5472,200L5184,200L4896,200L4608,200L4320,200L4032,200L3744,200L3456,200L3168,200L2880,200L2592,200L2304,200L2016,200L1728,200L1440,200L1152,200L864,200L576,200L288,200L0,200Z"/></svg>